<?xml version="1.0" encoding="UTF-8" standalone="no" ?>
<!DOCTYPE svg PUBLIC "-//W3C//DTD SVG 1.1//EN" "http://www.w3.org/Graphics/SVG/1.1/DTD/svg11.dtd">
<svg xmlns="http://www.w3.org/2000/svg" xmlns:xlink="http://www.w3.org/1999/xlink" version="1.1" width="500" height="500" viewBox="0 0 500 500" xml:space="preserve">
<desc>Created with Fabric.js 3.6.3</desc>
<defs>
</defs>
<g transform="matrix(5.168512715584277 0 0 5.168512715584277 250 250)"  >
<linearGradient id="SVGID_33853" gradientUnits="userSpaceOnUse" gradientTransform="matrix(1 0 0 1 2.6443000000000083 2.632800000000003)"  x1="0" y1="0" x2="94.71539999999999" y2="94.71539999999999">
<stop offset="0%" style="stop-color:rgb(45,56,138);stop-opacity: 1"/>
<stop offset="100%" style="stop-color:rgb(0,174,239);stop-opacity: 1"/>
</linearGradient>
<path style="stroke: none; stroke-width: 0; stroke-dasharray: none; stroke-linecap: butt; stroke-dashoffset: 0; stroke-linejoin: miter; stroke-miterlimit: 4; fill: url(#SVGID_33853); fill-rule: evenodd; opacity: 1;"  transform=" translate(-50.002, -49.9905)" d="m 79.293 2.6328 h -58.586 c -4.9688 0 -9.4844 2.0312 -12.758 5.3047 c -3.2734 3.2734 -5.3047 7.7891 -5.3047 12.758 v 58.59 c 0 4.9688 2.0312 9.4844 5.3047 12.758 c 3.2734 3.2734 7.7891 5.3047 12.758 5.3047 h 58.59 c 4.9688 0 9.4844 -2.0312 12.758 -5.3047 c 3.2734 -3.2734 5.3047 -7.7891 5.3047 -12.758 v -58.578 c 0 -4.9688 -2.0312 -9.4844 -5.3047 -12.758 c -3.2734 -3.2734 -7.7891 -5.3047 -12.758 -5.3047 z m -24.23 18.496 l 0.85156 5.1367 c 1.1797 0.29297 2.3359 0.67188 3.4414 1.1367 c 1.125 0.46484 2.2109 1.0117 3.2422 1.6328 l 4.168 -2.9883 c 0.45312 -0.37891 1.1367 -0.35938 1.5703 0.074219 l 5.5352 5.5352 c 0.39062 0.39844 0.46484 1.0312 0.125 1.4961 l -3.0312 4.2422 c 0.62109 1.0312 1.168 2.1172 1.6328 3.2422 c 0.46484 1.1055 0.84375 2.2617 1.1367 3.4414 l 5.0508 0.84375 c 0.58984 0.050781 1.0625 0.55859 1.0625 1.1562 v 7.832 c 0 0.55859 -0.39844 1.0508 -0.98047 1.1484 l -5.1367 0.85156 c -0.29297 1.1797 -0.67188 2.3359 -1.1367 3.4414 c -0.46484 1.1172 -1.0117 2.1992 -1.6328 3.2305 l 2.9883 4.168 c 0.37891 0.45312 0.35938 1.1367 -0.074219 1.5703 l -5.5352 5.5352 c -0.39062 0.39062 -1.0195 0.45312 -1.4961 0.125 l -4.2422 -3.0312 c -1.0117 0.60938 -2.0742 1.1484 -3.1797 1.6094 c -0.019531 0 -0.042969 0.019531 -0.0625 0.03125 c -1.1055 0.46484 -2.2617 0.84375 -3.4414 1.1367 l -0.84375 5.0508 c -0.050781 0.58984 -0.54688 1.0625 -1.1562 1.0625 h -7.832 c -0.55859 0 -1.0508 -0.41016 -1.1484 -0.98047 l -0.85156 -5.1367 c -1.1914 -0.29297 -2.3359 -0.67188 -3.4414 -1.1367 c -1.1172 -0.46484 -2.1992 -1.0117 -3.2305 -1.6328 l -4.168 2.9883 c -0.45312 0.37891 -1.1367 0.35938 -1.5703 -0.074218 l -5.5352 -5.5352 c -0.39844 -0.39844 -0.46484 -1.0312 -0.125 -1.4961 l 3.0312 -4.2422 c -0.60938 -1.0117 -1.1484 -2.0742 -1.6094 -3.1797 c 0 -0.019531 -0.019531 -0.042968 -0.019531 -0.0625 c -0.46484 -1.1055 -0.84375 -2.2617 -1.1367 -3.4414 l -5.0625 -0.84375 c -0.58984 -0.050781 -1.0625 -0.55859 -1.0625 -1.1562 v -7.832 c 0 -0.55859 0.39844 -1.0508 0.98047 -1.1484 l 5.1367 -0.85156 c 0.28516 -1.1562 0.66406 -2.2852 1.1172 -3.3789 c 0 -0.019531 0.011719 -0.042969 0.019531 -0.0625 c 0.46484 -1.1172 1.0117 -2.1992 1.6328 -3.2305 l -2.9883 -4.168 c -0.37891 -0.46484 -0.35938 -1.1367 0.074218 -1.5703 l 5.5352 -5.5352 c 0.39063 -0.39062 1.0195 -0.45312 1.4961 -0.125 l 4.2422 3.0312 c 1.0312 -0.62109 2.1172 -1.168 3.2422 -1.6328 c 1.1055 -0.46484 2.2617 -0.84375 3.4414 -1.1367 l 0.84375 -5.0625 c 0.050781 -0.58984 0.54687 -1.0625 1.1562 -1.0625 h 7.832 c 0.55859 0 1.0508 0.41016 1.1484 0.98047 z m -1.3281 6.2305 c 0.050781 0.48438 0.41016 0.89453 0.91406 1 c 1.3164 0.28516 2.5898 0.68359 3.8086 1.1914 c 1.2305 0.50391 2.3984 1.125 3.5039 1.8438 c 0.39062 0.27344 0.92578 0.28516 1.3359 0 l 4.0742 -2.9141 l 4.1484 4.1484 l -2.9141 4.0742 c -0.26172 0.37891 -0.29297 0.89453 -0.03125 1.3047 c 0.71484 1.1055 1.3359 2.293 1.8633 3.5352 c 0.50391 1.2227 0.90625 2.4961 1.1914 3.8086 c 0.09375 0.45313 0.46484 0.83203 0.94922 0.90625 l 4.9258 0.82031 v 5.8633 l -4.875 0.80859 c -0.48438 0.050781 -0.89453 0.41016 -1 0.91406 c -0.28516 1.3164 -0.68359 2.5898 -1.1914 3.8086 c -0.51562 1.2305 -1.125 2.4102 -1.8438 3.5039 c -0.27344 0.39063 -0.28516 0.92578 0 1.3359 l 2.9141 4.0742 l -4.1484 4.1484 l -4.0742 -2.9141 c -0.37891 -0.26172 -0.89453 -0.29297 -1.3047 -0.03125 c -1.0938 0.71484 -2.2617 1.3281 -3.4844 1.832 c -0.019532 0 -0.042969 0.011719 -0.0625 0.019531 c -1.2227 0.50391 -2.4961 0.90625 -3.8086 1.1914 c -0.45312 0.09375 -0.83203 0.46484 -0.90625 0.94922 l -0.82031 4.9258 h -5.8633 l -0.80859 -4.8828 c -0.050781 -0.48438 -0.41016 -0.89453 -0.91406 -1 c -1.3164 -0.28516 -2.5898 -0.68359 -3.8086 -1.1914 c -1.2305 -0.51562 -2.4102 -1.125 -3.5039 -1.8438 c -0.39062 -0.27344 -0.92578 -0.28516 -1.3359 0 l -4.0742 2.9141 l -4.1484 -4.1484 l 2.9141 -4.0742 c 0.26172 -0.37891 0.29297 -0.89453 0.03125 -1.3047 c -0.71484 -1.0938 -1.3281 -2.2617 -1.832 -3.4844 c 0 -0.019532 -0.011719 -0.042969 -0.019532 -0.0625 c -0.50391 -1.2227 -0.90625 -2.4961 -1.1914 -3.8086 c -0.09375 -0.45312 -0.46484 -0.83203 -0.94922 -0.90625 l -4.9258 -0.82031 v -5.8633 l 4.8828 -0.80859 c 0.48438 -0.050781 0.89453 -0.41016 1 -0.91406 c 0.27344 -1.3047 0.67188 -2.5586 1.1562 -3.7578 l 0.019532 -0.050781 c 0.51562 -1.2305 1.125 -2.4102 1.8438 -3.5039 c 0.27344 -0.39062 0.28516 -0.92578 0 -1.3359 l -2.9141 -4.0742 l 4.1484 -4.1484 l 4.0742 2.9141 c 0.37891 0.26172 0.89453 0.29297 1.3047 0.03125 c 1.1055 -0.71484 2.293 -1.3359 3.5352 -1.8633 c 1.2227 -0.50391 2.4961 -0.90625 3.8086 -1.1914 c 0.45312 -0.09375 0.83203 -0.46484 0.90625 -0.94922 l 0.82031 -4.9258 h 5.8633 l 0.80859 4.8828 z m -3.1055 15.758 c 0.16797 -0.62109 0.80078 -0.98828 1.4219 -0.82031 c 0.62109 0.16797 0.98828 0.80078 0.82031 1.4219 l -3.5273 13.156 c -0.16797 0.62109 -0.80078 0.98828 -1.4219 0.82031 c -0.62109 -0.16797 -0.98828 -0.80078 -0.82031 -1.4219 z m -6.1055 11.074 c 0.45312 0.45312 0.45312 1.1914 0 1.6523 c -0.45313 0.46484 -1.1914 0.45312 -1.6523 0 l -5.0117 -5.0117 c -0.45312 -0.45312 -0.45312 -1.1914 0 -1.6523 l 5.0117 -5.0117 c 0.45312 -0.45312 1.1914 -0.45312 1.6523 0 c 0.45312 0.45312 0.45312 1.1914 0 1.6523 l -4.1914 4.1914 l 4.1914 4.1914 z m 12.578 1.6523 c -0.45312 0.45312 -1.1914 0.45312 -1.6523 0 c -0.45312 -0.45312 -0.45312 -1.1914 0 -1.6523 l 4.1914 -4.1914 l -4.1914 -4.1914 c -0.45312 -0.45312 -0.45312 -1.1914 0 -1.6523 c 0.45312 -0.45312 1.1914 -0.45312 1.6523 0 l 5.0117 5.0117 c 0.45312 0.45312 0.45312 1.1914 0 1.6523 l -5.0117 5.0117 z m 4.1172 -17.062 c 2.875 2.875 4.6523 6.8438 4.6523 11.23 c 0 4.3906 -1.7773 8.3594 -4.6523 11.23 c -2.875 2.875 -6.8438 4.6523 -11.23 4.6523 c -4.3906 0 -8.3594 -1.7773 -11.23 -4.6523 c -2.875 -2.875 -4.6523 -6.8438 -4.6523 -11.23 c 0 -4.3906 1.7773 -8.3594 4.6523 -11.23 c 2.875 -2.875 6.8438 -4.6523 11.23 -4.6523 c 4.3906 0 8.3594 1.7773 11.23 4.6523 z m -11.23 -6.9805 c 5.0312 0 9.5781 2.043 12.875 5.3359 c 3.293 3.293 5.3359 7.8438 5.3359 12.875 s -2.043 9.5781 -5.3359 12.875 c -3.293 3.293 -7.8438 5.3359 -12.875 5.3359 s -9.5781 -2.043 -12.875 -5.3359 c -3.293 -3.293 -5.3359 -7.8438 -5.3359 -12.875 s 2.043 -9.5781 5.3359 -12.875 c 3.293 -3.293 7.8438 -5.3359 12.875 -5.3359 z m 23.926 -19.273 c 3.7266 0 7.1172 1.5273 9.5781 3.9805 c 2.4531 2.4531 3.9805 5.8438 3.9805 9.5781 v 47.852 c 0 3.7266 -1.5273 7.1172 -3.9805 9.5781 c -2.4531 2.4648 -5.8438 3.9805 -9.5781 3.9805 h -47.84 c -3.7266 0 -7.1172 -1.5273 -9.5781 -3.9805 c -2.4648 -2.4531 -3.9805 -5.8438 -3.9805 -9.5781 v -47.863 c 0 -3.7266 1.5273 -7.1172 3.9805 -9.5781 c 2.4531 -2.4531 5.8438 -3.9805 9.5781 -3.9805 h 47.852 z m -47.852 -2.3281 h 47.852 c 4.3672 0 8.3477 1.7891 11.223 4.6641 c 2.8828 2.8828 4.6641 6.8516 4.6641 11.223 v 47.852 c 0 4.3672 -1.7891 8.3477 -4.6641 11.223 s -6.8516 4.6641 -11.223 4.6641 l -47.84 -0.003907 c -4.3672 0 -8.3477 -1.7891 -11.223 -4.6641 s -4.6641 -6.8516 -4.6641 -11.223 l 0.003906 -47.859 c 0 -4.3672 1.7891 -8.3477 4.6641 -11.223 c 2.8828 -2.8828 6.8516 -4.6641 11.223 -4.6641 z" stroke-linecap="round" />
</g>
</svg>